<svg xmlns="http://www.w3.org/2000/svg" viewBox="0 0 519 161.64"><defs><style>.cls-1{fill:#24292e}.cls-2{fill:#fff}.cls-3{fill:#ff483b}</style></defs><g id="Layer_2" data-name="Layer 2"><g id="Layer_1-2" data-name="Layer 1"><path class="cls-1" d="M0 0h519v122H0z"/><path class="cls-2" d="M51.37 92.62V32.49h12.39l5.53 28.77V32.49h11.62v60.13H69.15l-6-30.1v30.1zM84.62 92.62l5.81-60.13h20.37l5.74 60.13h-11.41l-.84-9.73H97l-.7 9.73zm13.3-19.32h5.46l-2.66-30.59h-.56zM125.35 92.62V44h-7.14V32.49h26.32V44h-7.14v48.62zM146.28 92.62l5.81-60.13h20.37l5.74 60.13h-11.41l-.79-9.73h-7.28l-.7 9.73zm13.3-19.32H165l-2.66-30.59h-.56zM181.84 92.62V32.49h12V82.4h12.39v10.22zM209.07 92.62V32.49h11.62v60.13zM223.91 92.62l5.81-60.13h20.37l5.74 60.13h-11.41l-.84-9.73h-7.28l-.7 9.73zm13.3-19.32h5.46L240 42.71h-.56z"/><path class="cls-1" d="M43.1 161.25l-6.88-22.4h-.17c.24 4.55.37 7.59.37 9.12v13.28H31v-28.56h8.24L46 154.53h.11l7.17-21.84h8.24v28.56h-5.63v-13.52-2.2c0-.83.11-3.05.26-6.65H56l-7.37 22.37zM113.8 161.25l-2.07-6.8h-10.41l-2.07 6.8h-6.52l10.08-28.67h7.4l10.12 28.67zm-3.51-11.88q-2.88-9.24-3.24-10.45c-.24-.8-.41-1.44-.51-1.91q-.65 2.51-3.69 12.36zM157.57 150.29v11h-6v-28.6h8.32q5.82 0 8.61 2.12c1.86 1.42 2.8 3.56 2.8 6.44a7.6 7.6 0 0 1-1.39 4.48 9.23 9.23 0 0 1-3.93 3.08q6.45 9.63 8.4 12.44h-6.72l-6.81-11zm0-4.92h2a7.49 7.49 0 0 0 4.24-1 3.42 3.42 0 0 0 1.36-3 3.13 3.13 0 0 0-1.39-2.89 8.53 8.53 0 0 0-4.33-.86h-1.84zM228.49 161.25h-6.87l-7.48-12-2.56 1.83v10.2h-6.05v-28.59h6.05v13.07l2.42-3.36 7.74-9.71h6.72l-10 12.64zM276.13 161.25h-16.44v-28.56h16.44v5h-10.39v6.27h9.67v5h-9.67v7.37h10.39zM320.71 161.25h-6.06v-23.52h-7.75v-5h21.56v5h-7.75zM360.45 161.25v-28.56h6.06v28.56zM426.63 161.25h-7.7l-12.42-21.6h-.17c.24 3.81.37 6.53.37 8.16v13.44h-5.41v-28.56h7.63l12.41 21.39h.13q-.29-5.57-.29-7.87v-13.52h5.45zM472.26 145.21h11.32V160a31.56 31.56 0 0 1-5.18 1.26 33.91 33.91 0 0 1-5 .36q-6.46 0-9.88-3.8t-3.4-10.91q0-6.92 4-10.78t11-3.87a21.22 21.22 0 0 1 8.47 1.76l-2 4.84a14.37 14.37 0 0 0-6.5-1.56 8 8 0 0 0-6.29 2.64 10.25 10.25 0 0 0-2.36 7.09c0 3.1.63 5.46 1.9 7.1a6.61 6.61 0 0 0 5.54 2.45 19.72 19.72 0 0 0 3.85-.39v-6h-5.41z"/><path class="cls-3" d="M260.76 92.12L266.57 32h20.37l5.74 60.13h-11.41l-.84-9.73h-7.28l-.7 9.73zm13.3-19.32h5.46l-2.66-30.59h-.56zM299.78 88.55q-4-4.12-3.95-11.34V49.49q0-9 3.57-13.51t11.2-4.55q6.64 0 10.71 3.64t4.06 10.5v10.36h-12V47a7.15 7.15 0 0 0-.63-3.57 2.39 2.39 0 0 0-2.17-1 2.28 2.28 0 0 0-2.21 1.12 7.19 7.19 0 0 0-.59 3.29v30.23a6.58 6.58 0 0 0 .7 3.47 2.32 2.32 0 0 0 2.1 1.08c1.86 0 2.8-1.51 2.8-4.55V66.22h12.11v11.34q0 15.12-15.19 15.12a13.9 13.9 0 0 1-10.51-4.13zM329.5 92.12V32h24.08v11.61h-11.83V55.3h11.34v11.34h-11.34v13.79h12.6v11.69zM363.86 92.12l-7.42-60.2h11.48l4.41 41 3.92-40.95h11.48l-7.42 60.2zM391.16 92.12V32h24.08v11.61h-11.83V55.3h11.34v11.34h-11.34v13.79H416v11.69zM420 32h16.59q6.45 0 9.66 3.57t3.29 10.57l.14 28.14q.07 8.9-3.08 13.37t-10.43 4.48H420zm14.21 49.49c2.2 0 3.29-1.07 3.29-3.22v-31a11 11 0 0 0-.31-3 2 2 0 0 0-1.19-1.43 7.22 7.22 0 0 0-2.59-.35h-1.33v39zM457.8 88.24q-3.8-4.45-3.8-12.5V47.11q0-7.77 3.78-11.72t11.06-4q7.29 0 11.06 4t3.78 11.72v28.63q0 8.13-3.78 12.53t-11.06 4.41q-7.25 0-11.04-4.44zm13.23-8a10.75 10.75 0 0 0 .56-3.92V46.9a8.15 8.15 0 0 0-.52-3.18 2.08 2.08 0 0 0-2.14-1.23c-2 0-3 1.52-3 4.55v29.33a9.47 9.47 0 0 0 .63 3.92 2.32 2.32 0 0 0 2.31 1.33 2.11 2.11 0 0 0 2.13-1.4z"/></g></g></svg>